HIERARCHY
ROOT hip
{
  OFFSET 0 0 0
  CHANNELS 6 Xposition Yposition Zposition Zrotation Yrotation Xrotation
  JOINT abdomen
  {
    OFFSET 0 20.6881 -0.73152
    CHANNELS 3 Zrotation Xrotation Yrotation
    JOINT chest
    {
      OFFSET 0 11.7043 -0.48768
      CHANNELS 3 Zrotation Xrotation Yrotation
      JOINT neck
      {
        OFFSET 0 22.1894 -2.19456
        CHANNELS 3 Zrotation Xrotation Yrotation
        JOINT head
        {
          OFFSET -0.24384 7.07133 1.2192
          CHANNELS 3 Zrotation Xrotation Yrotation
          JOINT leftEye
          {
            OFFSET 4.14528 8.04674 8.04672
            CHANNELS 3 Zrotation Xrotation Yrotation
            End Site
            {
              OFFSET 1 0 0
            }
          }
          JOINT rightEye
          {
            OFFSET -3.6576 8.04674 8.04672
            CHANNELS 3 Zrotation Xrotation Yrotation
            End Site
            {
              OFFSET 1 0 0
            }
          }
        }
      }
      JOINT rCollar
      {
        OFFSET -2.68224 19.2634 -4.8768
        CHANNELS 3 Zrotation Xrotation Yrotation
        JOINT rShldr
        {
          OFFSET -8.77824 -1.95073 1.46304
          CHANNELS 3 Zrotation Xrotation Yrotation
          JOINT rForeArm
          {
            OFFSET -28.1742 -1.7115 0.48768
            CHANNELS 3 Zrotation Xrotation Yrotation
            JOINT rHand
            {
              OFFSET -22.5879 0.773209 7.07136
              CHANNELS 3 Zrotation Xrotation Yrotation
              JOINT rThumb1
              {
                OFFSET -1.2192 -0.487915 3.41376
                CHANNELS 3 Zrotation Xrotation Yrotation
                JOINT rThumb2
                {
                  OFFSET -3.37035 -0.52449 3.41376
                  CHANNELS 3 Zrotation Xrotation Yrotation
                  End Site
                  {
                    OFFSET -1.78271 -1.18214 1.43049
                  }
                }
              }
              JOINT rIndex1
              {
                OFFSET -7.75947 0.938293 5.60832
                CHANNELS 3 Zrotation Xrotation Yrotation
                JOINT rIndex2
                {
                  OFFSET -2.54057 -0.884171 1.56538
                  CHANNELS 3 Zrotation Xrotation Yrotation
                  End Site
                  {
                    OFFSET -1.62519 -0.234802 1.16502
                  }
                }
              }
              JOINT rMid1
              {
                OFFSET -8.24714 1.18213 3.41376
                CHANNELS 3 Zrotation Xrotation Yrotation
                JOINT rMid2
                {
                  OFFSET -3.10165 -0.590103 1.0647
                  CHANNELS 3 Zrotation Xrotation Yrotation
                  End Site
                  {
                    OFFSET -2.48547 -0.328903 0.83742
                  }
                }
              }
              JOINT rRing1
              {
                OFFSET -8.82822 0.546677 1.51678
                CHANNELS 3 Zrotation Xrotation Yrotation
                JOINT rRing2
                {
                  OFFSET -2.60934 -0.819778 -0.0198488
                  CHANNELS 3 Zrotation Xrotation Yrotation
                  End Site
                  {
                    OFFSET -2.33842 -0.294052 0.168128
                  }
                }
              }
              JOINT rPinky1
              {
                OFFSET -8.27202 -0.0477905 -0.4584
                CHANNELS 3 Zrotation Xrotation Yrotation
                JOINT rPinky2
                {
                  OFFSET -1.82734 -0.647385 -0.700984
                  CHANNELS 3 Zrotation Xrotation Yrotation
                  End Site
                  {
                    OFFSET -1.69225 -0.51767 -0.607171
                  }
                }
              }
            }
          }
        }
      }
      JOINT lCollar
      {
        OFFSET 2.68224 19.2634 -4.8768
        CHANNELS 3 Zrotation Xrotation Yrotation
        JOINT lShldr
        {
          OFFSET 8.77824 -1.95073 1.46304
          CHANNELS 3 Zrotation Xrotation Yrotation
          JOINT lForeArm
          {
            OFFSET 28.1742 -1.7115 0.48768
            CHANNELS 3 Zrotation Xrotation Yrotation
            JOINT lHand
            {
              OFFSET 22.5879 0.773209 7.07136
              CHANNELS 3 Zrotation Xrotation Yrotation
              JOINT lThumb1
              {
                OFFSET 1.2192 -0.487915 3.41376
                CHANNELS 3 Zrotation Xrotation Yrotation
                JOINT lThumb2
                {
                  OFFSET 3.37035 -0.52449 3.41376
                  CHANNELS 3 Zrotation Xrotation Yrotation
                  End Site
                  {
                    OFFSET 1.78271 -1.18214 1.43049
                  }
                }
              }
              JOINT lIndex1
              {
                OFFSET 7.75947 0.938293 5.60832
                CHANNELS 3 Zrotation Xrotation Yrotation
                JOINT lIndex2
                {
                  OFFSET 2.54057 -0.884171 1.56538
                  CHANNELS 3 Zrotation Xrotation Yrotation
                  End Site
                  {
                    OFFSET 1.62519 -0.234802 1.16502
                  }
                }
              }
              JOINT lMid1
              {
                OFFSET 8.24714 1.18213 3.41376
                CHANNELS 3 Zrotation Xrotation Yrotation
                JOINT lMid2
                {
                  OFFSET 3.10165 -0.590103 1.0647
                  CHANNELS 3 Zrotation Xrotation Yrotation
                  End Site
                  {
                    OFFSET 2.48547 -0.328903 0.83742
                  }
                }
              }
              JOINT lRing1
              {
                OFFSET 8.82822 0.546677 1.51678
                CHANNELS 3 Zrotation Xrotation Yrotation
                JOINT lRing2
                {
                  OFFSET 2.60934 -0.819778 -0.0198488
                  CHANNELS 3 Zrotation Xrotation Yrotation
                  End Site
                  {
                    OFFSET 2.33842 -0.294052 0.168128
                  }
                }
              }
              JOINT lPinky1
              {
                OFFSET 8.27202 -0.0477905 -0.4584
                CHANNELS 3 Zrotation Xrotation Yrotation
                JOINT lPinky2
                {
                  OFFSET 1.82734 -0.647385 -0.700984
                  CHANNELS 3 Zrotation Xrotation Yrotation
                  End Site
                  {
                    OFFSET 1.69225 -0.51767 -0.607171
                  }
                }
              }
            }
          }
        }
      }
    }
  }
  JOINT rButtock
  {
    OFFSET -8.77824 4.35084 1.2192
    CHANNELS 3 Zrotation Xrotation Yrotation
    JOINT rThigh
    {
      OFFSET 0 -1.70687 -2.19456
      CHANNELS 3 Zrotation Xrotation Yrotation
      JOINT rShin
      {
        OFFSET 0 -36.8199 0.73152
        CHANNELS 3 Zrotation Xrotation Yrotation
        JOINT rFoot
        {
          OFFSET 0.73152 -45.1104 -5.12064
          CHANNELS 3 Zrotation Xrotation Yrotation
          End Site
          {
            OFFSET -1.1221 -3.69964 12.103
          }
        }
      }
    }
  }
  JOINT lButtock
  {
    OFFSET 8.77824 4.35084 1.2192
    CHANNELS 3 Zrotation Xrotation Yrotation
    JOINT lThigh
    {
      OFFSET 0 -1.70687 -2.19456
      CHANNELS 3 Zrotation Xrotation Yrotation
      JOINT lShin
      {
        OFFSET 0 -36.8199 0.73152
        CHANNELS 3 Zrotation Xrotation Yrotation
        JOINT lFoot
        {
          OFFSET -0.73152 -45.1104 -5.12064
          CHANNELS 3 Zrotation Xrotation Yrotation
          End Site
          {
            OFFSET 1.1221 -3.69964 12.103
          }
        }
      }
    }
  }
}
MOTION
Frames:	8
Frame Time:	0.03333
-9.9202 72.12910000000001 -46.3965 -2.913357 6.117663 8.306138 0.514901 7.704676 138.591165 -3.413802 2.404115 -126.063442 3.510893 19.280878 52.602738 -35.164106 -14.327889 -70.355757 -0.003507 -0.0 0.000859 -0.00332 -0.0 0.000232 3.935279 -36.568032 -7.05063 -101.306041 12.746301 136.608506 117.01957 83.932808 108.720772 -179.517313 -3.328984 143.273306 -157.999915 4.194895 88.450143 -81.373858 1.628543 32.724689 -50.386688 40.826419 40.024467 -172.418746 -23.012505 111.728961 -86.295793 60.96048 77.857002 -34.422295 55.062416 29.265608 -0.000483 0.0634 0.022068 -156.583286 -34.930971 175.978956 -125.48522 -28.27616 -123.239896 -151.340101 26.050096 -144.885204 159.222113 -48.725122 -170.566669 37.331312 2.472065 44.140234 173.158189 20.363517 85.742869 15.76078 -50.168249 13.7136 68.482539 37.952445 -35.660383 -29.601002 -28.118619 -16.918975 37.734427 36.425096 -28.890377 2.212679 13.292968 -0.960414 169.090163 -33.247458 -145.374026 172.390863 -31.345146 -143.678788 0.01322 -1.323069 0.416451 128.24511 -84.3816 150.41614 -5.663086 16.872336 -5.086405 -2.038638 -0.328886 0.139266 -0.000596 -0.001131 -0.000298 2.540711 -36.488046 -175.732526 -60.8514 -58.903519 -119.710353 -169.523812 -8.261366 168.893697 -179.998795 75.749762 -0.000825 -171.207651 9.279537 -119.752457 -91.089271 -32.564076 58.957199 79.222398 30.415896 -9.324496
-9.9182 72.529 -47.2248 -2.638408 7.107233 8.421491 2.509369 11.612293 -7.706764 0.224453 -8.221393 19.758844 -13.339333 21.836868 -48.11767 35.884754 -18.651913 40.654174 -0.003289 -0.0 0.003493 0.002577 0.0 0.002289 3.191739 -25.838946 -5.073839 -138.683648 -21.150828 130.141103 3.870319 41.172559 -136.543821 177.966243 -10.304199 143.470004 -171.508507 -9.192729 89.950765 -28.922819 -32.403587 3.826567 -19.171759 24.11395 13.381516 0.078176 11.819936 1.602323 -160.673024 -6.668078 143.24441 80.985978 -77.628779 52.536851 0.002739 0.605634 0.18941 8.257448 20.626069 2.932301 12.988951 44.344289 10.760574 1.494013 -0.552195 -0.496866 158.467613 -30.055419 -166.920469 -107.351715 46.214759 144.181379 122.199061 -46.203847 -89.247098 158.940722 0.019584 -146.365862 0.442036 0.435103 -0.069335 37.286974 26.045929 -33.565306 -169.568971 -65.842833 -109.955743 -131.907947 -68.433245 -70.961022 3.364016 9.239028 -2.046473 172.036805 -31.350414 -144.107176 145.11986 0.267678 179.212604 -11.967933 31.797903 5.396804 1.148622 -2.914807 1.064339 137.758189 -13.850032 135.516959 179.992685 75.750682 0.004283 -178.396412 38.860204 173.289354 -51.403438 -71.475767 -51.735941 71.53337 -10.399094 152.445304 179.9837 75.748884 0.011152 -174.115381 12.381286 73.228229 96.664456 23.851686 163.527479 91.140801 -39.69148 178.873374
-9.9194 72.931 -47.9761 -2.463559 8.212637 8.435386 1.759654 6.604862 172.682862 -0.410904 3.346517 -160.869666 6.940724 24.051998 83.560378 -42.282075 7.695597 -96.149724 -0.001445 0.0 -0.00048 -0.001274 0.0 -0.001095 1.990371 -14.052909 -2.881017 -119.137428 1.423771 125.783393 -1.245762 66.246191 -132.061778 177.219909 -12.542678 143.455873 -168.699845 -6.377962 89.898539 34.094184 -64.148062 28.426164 73.422688 -73.569601 26.566342 8.05958 14.269424 -2.769526 -167.376322 -28.008346 145.268937 -6.101283 23.19509 5.417545 -145.063909 -3.222454 -178.11427 -138.505903 -60.547736 -160.84249 -152.504638 38.523096 -147.797881 -9.976798 -23.28349 -11.923388 146.666594 31.65944 -151.372467 -14.692125 -60.320607 -73.7433 -163.548997 81.603762 -68.423963 138.192725 34.641451 -123.149252 171.653901 -9.336264 -89.948324 137.977109 9.897844 -69.372256 138.493374 4.896425 -114.864992 173.941688 -34.405727 -117.024633 -89.035693 -81.392465 -59.759614 163.539367 -4.932283 -143.164516 145.117957 0.185033 179.187342 -11.913511 29.602159 5.639347 15.566709 -28.354879 14.85382 146.404599 10.440625 143.243739 -0.000632 0.001089 0.0 0.842635 -37.107054 -180.0 -51.453251 -69.291192 -18.083171 -178.753237 2.186062 -100.478619 179.994746 75.748553 0.003595 -174.319727 13.256855 156.551345 100.649053 -59.27493 -176.827791 168.568261 23.378234 -116.171546
-9.912799999999999 73.31530000000001 -48.6958 -2.227116 9.413146 8.413962 0.632372 6.550222 152.195531 -2.687583 2.553968 -140.719572 -2.090808 36.785259 -177.073698 9.878678 52.927401 155.821112 -0.002789 -0.0 0.001819 0.002305 -0.0 -0.004429 -151.972024 14.764016 157.371235 -101.520278 -52.160953 -81.335371 -137.628458 16.835719 22.625491 160.888594 -51.133878 136.510297 -171.70583 -9.388478 89.949194 177.171923 -18.812523 95.316516 -155.19382 -24.299851 122.142905 -133.612761 32.150055 108.417091 89.034955 -81.39364 59.760003 -165.517429 -10.990426 143.690455 -0.020088 -1.72516 -0.542475 11.684713 -29.443397 -3.530846 20.726303 70.5666 12.99557 -11.814958 -26.35982 -12.50243 -0.162914 -0.990057 0.218582 -76.203549 12.95589 -7.732548 -84.677661 27.914428 -66.013242 34.399786 20.365285 -14.954104 7.759771 7.438607 -1.681812 -12.686317 -14.373267 4.058729 108.427766 34.160146 -91.742203 164.046979 -10.583901 -116.174543 -68.985993 -80.153297 -40.580853 162.359425 -1.393354 -142.774445 145.121767 1.974375 179.748991 145.915933 -49.250087 168.096381 124.852667 -29.039249 122.622018 146.89222 12.091331 142.139537 179.992808 75.748456 0.004211 179.943002 38.557947 179.640786 -32.037302 -65.589622 74.523756 -11.842001 -37.210629 35.4919 -179.969296 75.748454 -0.025262 -174.966855 15.469081 170.175709 103.772555 -73.168213 -174.264586 -24.001248 69.485296 114.759385
-9.9099 73.6285 -49.303999999999995 -1.952277 10.594564 8.491164 1.752173 10.727001 -9.333221 1.235272 -7.80658 20.319464 -9.988161 18.85627 -22.746081 19.245457 -30.26622 11.539321 -6.6e-05 0.0 -0.001278 -6.6e-05 0.0 -0.001278 -130.420146 54.549282 134.287871 141.806297 -13.976046 -179.979585 -56.240045 7.897273 148.452266 21.871003 -58.961514 9.540901 71.831404 -48.263044 25.792214 -21.215942 -9.69516 -17.450913 5.69185 -9.76159 -2.868559 8.92926 5.445657 0.192993 9.41717 -29.555309 -3.209829 1.754613 4.003215 0.582632 -145.111369 -0.669254 -178.918582 11.980275 29.599243 -5.641251 -24.987818 -37.659869 -24.059635 -159.243114 55.728212 -149.578589 28.384743 -85.199267 49.679811 81.284677 -27.188449 98.840059 65.729629 26.273747 98.518911 164.413384 -21.603764 -154.730248 166.630653 -4.305056 -89.771993 126.219412 10.124572 -60.415837 145.336654 -6.265012 -118.677803 119.129963 45.959368 -95.632532 125.643386 49.840018 -115.274494 170.049474 -25.762197 -144.014757 145.119222 0.227004 179.198697 134.198311 -64.918849 156.150085 55.227841 -50.53986 53.89805 -3.388331 -0.023221 0.681047 0.00036 -0.00025 -0.000462 -0.66494 -37.258736 -176.514527 -59.344882 -54.796538 -121.260467 -44.614655 17.59897 -142.204545 8.5e-05 0.000557 -0.000109 7.279738 -55.574039 8.803314 -87.092812 84.941469 -11.086504 89.739495 -47.673646 174.377287
-9.8925 73.9423 -49.851800000000004 -1.772533 11.746593 8.436234 -0.710359 6.320991 138.77637 -4.023635 1.417963 -127.988103 -3.833332 17.044043 11.03231 -9.387394 -31.776041 -31.350958 0.003947 0.0 0.002943 0.004143 0.0 0.002372 0.140383 -0.853257 -0.189232 78.000537 -21.910471 60.582409 -79.973302 86.425568 -175.447447 -7.918877 8.300357 -1.375456 -171.602402 -9.28662 89.95023 -38.969757 -23.025854 5.785055 -46.207528 39.653959 36.317547 -1.749815 12.357939 0.137185 -125.642889 49.839793 115.274314 3.337193 0.212595 0.271646 -145.122576 1.974523 -179.748683 -156.565744 13.746215 179.149543 -150.030439 28.966131 -145.936801 -154.187578 31.385637 -145.367428 -2.186048 -15.733641 3.201408 40.918893 -76.669961 120.360985 -158.624928 37.737351 66.667038 18.38909 -27.676769 5.931108 178.927438 -16.453765 -89.421315 93.454086 15.148028 -36.194173 50.386313 40.826 -40.025138 19.57364 31.894217 -9.745631 3.541084 9.698242 -2.163406 172.039127 -31.35032 -144.104904 145.100169 -1.521567 178.651097 144.811446 -51.028764 167.230313 -4.593519 13.360109 -4.15805 -2.256888 0.091007 -0.005791 -179.994646 75.749059 -0.005524 178.66092 40.685246 0.852866 54.642937 59.47295 93.479037 88.780676 12.954622 163.634468 0.005765 -0.001217 0.005764 6.352009 -53.647625 -16.030689 -87.597462 61.295943 -22.073568 -4.947191 40.632003 116.699037
-9.8971 74.2563 -50.333600000000004 -1.58325 12.701881 8.378981 0.357299 5.458518 176.249222 -1.019753 3.036522 -165.816949 -10.331654 35.296444 -132.752694 39.556525 35.378965 101.953283 0.000927 -0.0 -0.002082 0.001133 -0.0 -0.002638 -155.417491 -2.951646 161.717856 121.873152 43.520269 -125.17297 99.211108 -73.296439 -41.404455 -176.916673 5.75922 142.756385 2.012494 -1.996687 -0.27413 0.765264 -1.595494 -2.015327 112.65863 -76.286157 61.489076 12.539398 7.14775 -5.466259 -160.739885 -6.876876 143.276985 29.964963 -60.066508 7.102937 -145.119228 0.184767 -179.188024 -145.775116 -49.24409 -168.098836 -111.800366 -40.682895 -109.846909 2.132793 -2.910539 -2.322348 129.706751 55.10249 -133.55352 106.758233 22.12649 -73.712078 -65.851257 -31.425887 100.917844 74.723484 48.665389 -57.65094 176.295918 -13.919554 -89.719127 -100.844 -68.210273 -76.767475 46.20832 39.6531 -36.318147 1.749312 12.358188 -0.135977 8.41612 20.880497 -5.645333 -173.366152 -58.975065 -137.143268 145.124058 1.080947 179.467607 155.602326 1.11072 179.369079 85.900594 -50.51705 84.269721 -9.576715 18.341025 -3.591192 -179.9985 75.75118 -0.001547 178.632323 40.630921 2.099752 44.598038 64.751461 177.401343 118.352026 79.102913 -7.58299 -179.989975 75.749381 -0.008249 -177.21857 21.650409 172.498308 82.617738 -76.216558 155.621941 -0.875029 41.271076 112.447375
-9.8679 74.5396 -50.772099999999995 -1.606256 13.495057 8.327704 0.274685 9.940163 -0.036143 0.81931 -7.827355 10.408039 -10.051868 18.975369 -23.121627 18.8886 -29.529479 8.966356 -0.00466 0.0 -0.004152 0.001872 0.0 0.00038 -6.633551 27.325783 7.894506 -105.497949 19.580648 99.26413 -64.035256 64.71066 -71.187682 169.148438 -35.41938 141.356695 -175.198062 -12.846131 89.807888 -25.448925 -36.576718 1.112353 -0.328695 0.529693 0.185576 -13.159017 28.745034 10.413302 7.90597 -24.807305 -3.013288 3.077941 0.178919 0.017877 -0.0005 -0.060958 -0.018377 -156.575125 -33.17623 175.756077 -144.257873 9.237102 -141.011717 46.439678 79.970985 -10.067863 -3.444987 -62.740765 13.276615 68.379436 -32.840449 110.37666 0.567443 0.743924 129.798432 143.133768 29.091455 -128.844556 -3.050941 -3.032494 0.389961 6.625271 7.100079 -3.664436 152.812378 -19.873055 -121.573176 -1.030945 19.627475 5.424029 86.295665 60.96113 -77.857115 85.793512 64.052506 -77.84243 145.120688 0.268005 179.211982 144.95161 -51.033837 167.224398 1.17735 -2.985568 1.09163 133.900448 -21.224514 131.977605 0.000417 0.001549 -0.000536 -0.846123 -37.423245 175.988039 -42.825932 -57.160929 -147.25383 169.963894 30.036453 111.302574 -179.954107 75.750876 -0.035373 -177.67728 23.482528 174.18772 35.612401 -76.07111 -177.809584 79.713264 31.250677 0.790112
